# xmcd CD database file
#
# Track frame offsets:
#	150
#	24826
#	40885
#	51359
#	75522
#	98624
#	109791
#	120958
#	163274
#	184121
#	204392
#	232165
#
# Disc length: 3456 seconds
#
# Revision: 1
# Processed by: cddbd v1.5.1PL0 Copyright (c) Steve Scherf et al.
# Submitted via: CDex 1.51
#
DISCID=910d7e0c
DTITLE=中國中央音樂學院 - 將軍令
DYEAR=1900
DGENRE=Country
TTITLE0=木棉花開 Blossoming of the Kapok
TTITLE1=柳琴戲牌子曲 Brand Song
TTITLE2=黎明舞曲 The Dance of Dawn
TTITLE3=昭君怨 Sorrow of the Lady Zhao-jun
TTITLE4=將軍令 The General's Order
TTITLE5=倒垂簾 The inverted Curtain
TTITLE6=酒狂The Drunkard
TTITLE7=月兒高Moonrise
TTITLE8=無所事事 Having nothing to do
TTITLE9=和番 Making peace with the Enemy
TTITLE10=大浪淘沙 Big Waves against the sands
TTITLE11=合歡令 Song of Unanimous Joy
EXTD=
EXTT0=
EXTT1=
EXTT2=
EXTT3=
EXTT4=
EXTT5=
EXTT6=
EXTT7=
EXTT8=
EXTT9=
EXTT10=
EXTT11=
PLAYORDER=
